<?xml version="1.0" encoding="utf-8"?>
<!-- Generator: Adobe Illustrator 23.0.1, SVG Export Plug-In . SVG Version: 6.00 Build 0)  -->
<svg version="1.1" id="a2995fdc-ba4a-4390-a70c-27b90cf54d89"
	 xmlns="http://www.w3.org/2000/svg" xmlns:xlink="http://www.w3.org/1999/xlink" x="0px" y="0px" viewBox="0 0 908.6 777.9"
	 style="enable-background:new 0 0 908.6 777.9;" xml:space="preserve">
<style type="text/css">
	.st0{fill:#6C63FF;}
	.st1{fill:#3F3D56;}
	.st2{fill:#E6E6E6;}
	.st3{fill:#FFB8B8;}
	.st4{fill:#2F2E41;}
	.st5{fill:#FFFFFF;}
	.st6{fill:#575A89;}
	.st7{opacity:0.2;enable-background:new    ;}
	.st8{fill:#FFB9B9;}
	.st9{fill:#A0616A;}
	.st10{fill:#D0CDE1;}
	.st11{fill:none;}
	.st12{fill:#333333;}
</style>
<title>social_distancing</title>
<ellipse class="st0" cx="123.6" cy="330.5" rx="95.4" ry="194.6"/>
<path class="st1" d="M122.7,332.6c4.8-84.7,14.3-141.9,14.4-142.5l-2.1-0.4c-0.1,0.6-9.7,57.9-14.5,142.7
	c-4.4,78.3-5.5,196.7,14.5,316.2l2.1-0.3C117.2,529,118.3,410.7,122.7,332.6z"/>
<rect x="117.3" y="314" transform="matrix(0.8817 -0.4719 0.4719 0.8817 -129.0198 115.7133)" class="st1" width="97.8" height="2.1"/>
<rect x="74.1" y="289.3" transform="matrix(0.4717 -0.8818 0.8818 0.4717 -258.5147 244.9751)" class="st1" width="2.1" height="97.8"/>
<ellipse class="st0" cx="784.9" cy="252.5" rx="123.7" ry="252.5"/>
<path class="st1" d="M783.4,255c6.2-109.9,18.6-184.2,18.7-184.9l-2-0.3c-0.1,0.7-12.6,75.1-18.8,185.1
	c-5.7,101.5-7.1,255.1,18.8,410.2l2-0.3C776.3,509.9,777.7,356.5,783.4,255z"/>
<rect x="776.7" y="231.4" transform="matrix(0.8817 -0.4719 0.4719 0.8817 -10.2392 423.9812)" class="st1" width="126.9" height="2"/>
<rect x="721.1" y="199" transform="matrix(0.4717 -0.8818 0.8818 0.4717 150.1389 775.374)" class="st1" width="2" height="126.9"/>
<ellipse class="st2" cx="635.8" cy="479" rx="46.2" ry="94.3"/>
<path class="st1" d="M635.8,483l0.3,0.5l41.8-22.4l-0.9-1.8l-41,22c2.3-41.8,6.9-69.9,7-70.4l-2-0.3c-0.1,0.6-5.6,33.9-7.6,82.1
	l-41.4-22.2l-0.9,1.8l41.8,22.4l0.5-0.9c-1.6,39.8-0.7,89.6,7.6,139.4l2-0.3C633.8,578.5,633.6,524.3,635.8,483z"/>
<path class="st1" d="M870.1,685.8c-246.2-77.9-469.5-73.8-613.5-56.6C100.7,647.8,1.7,685.4,0.7,685.7L0,683.9
	c1-0.4,100.2-38,256.4-56.7c91.9-11,184.6-13.3,276.9-7.1c114.6,7.8,227.9,29.2,337.4,63.7L870.1,685.8z"/>
<path class="st1" d="M316.5,663.7c0,0,0.7-14.5,14.8-12.8"/>
<circle class="st0" cx="312.5" cy="642.9" r="7.1"/>
<rect x="311.4" y="654.8" class="st1" width="2" height="14"/>
<path class="st1" d="M574.5,666.7c0,0,0.7-14.5,14.8-12.8"/>
<circle class="st0" cx="570.5" cy="645.9" r="7.1"/>
<rect x="569.4" y="657.8" class="st1" width="2" height="14"/>
<path class="st1" d="M149.5,641.7c0,0,0.7-14.5,14.8-12.8"/>
<circle class="st0" cx="145.5" cy="620.9" r="7.1"/>
<rect x="144.4" y="632.8" class="st1" width="2" height="14"/>
<path class="st1" d="M258.5,622.7c0,0,0.7-14.5,14.8-12.8"/>
<ellipse transform="matrix(0.1602 -0.9871 0.9871 0.1602 -380.3661 756.696)" class="st0" cx="254.5" cy="601.9" rx="7.1" ry="7.1"/>
<rect x="253.4" y="613.8" class="st1" width="2" height="14"/>
<path class="st1" d="M531.5,649.7c0,0,0.7-14.5,14.8-12.8"/>
<circle class="st0" cx="527.5" cy="628.9" r="7.1"/>
<rect x="526.4" y="640.8" class="st1" width="2" height="14"/>
<path class="st3" d="M839,620.7l41.2,61l-38.3,38.3l-5-9.9l8.5-19.9c0,0-1.4-18.5-6.4-23.4s-27-34.8-27-34.8L839,620.7z"/>
<path class="st4" d="M786.5,423.5c0,0,7.8,12.4-8.5,65.6c0,0,76.1,128.5,64.1,137s-44.7,27.4-53.2,21.7s-70.4-198-70.4-198
	L786.5,423.5z"/>
<path class="st4" d="M872.7,670.8l12.4,12.4c6.4,6.4,10.6,15.6-1.4,23.4s-53.9,36.9-68.1,27.7s17-17.7,17-17.7s5.2-19.1,7.9-14.9
	s2.7,12.8,2.7,12.8L872.7,670.8z"/>
<path class="st3" d="M722.6,654.1c0,0-22.7,41.9-22.7,46.8s1.4,19.2,1.4,19.2l-43.3,10.6l-14.9-7.1l5-12.8c0,0,27-9.2,32.6-27
	s12.1-36.2,12.1-36.2L722.6,654.1z"/>
<circle class="st3" cx="748.9" cy="207.7" r="29.8"/>
<path class="st3" d="M741.1,233.3l14.2,40.9l31.2-13.9c0,0-21.3-32.6-21.3-36.9L741.1,233.3z"/>
<path class="st4" d="M736.8,378.7h37.6c0,0,27,41.2,11.4,84.4c-2.4,6.6-4.8,15.9-7.1,26.9c-5.4,25.2-10.9,59.4-16.4,90.9
	c-7.8,44.1-15.9,82.8-24.7,83.5c-17.7,1.4-52.2,1.2-52.2-5.9s23.1-212.4,23.1-212.4l5-8.5l0.9-37.1
	C714.7,388.4,724.6,378.7,736.8,378.7z"/>
<path class="st4" d="M699.6,700.6c0,0,8.2,13.8,6,23.8s-5.7,8.5-21.3,9.9s-68.8,1.4-68.8-8.5s41.5-22.8,41.7-18.9s1.6,11.8-2.7,13.2
	s-0.4,0.4-0.4,0.4L699.6,700.6z"/>
<path class="st5" d="M741.1,467.3c0,0-3.1,50.4-23.7,35.4s8-42.1,8-42.1L741.1,467.3z"/>
<path class="st6" d="M782.2,400.9c2,0.9,4.4,0.6,6.1-0.7c1.2-1,2.1-2.4,2.3-4c3-17.2,6.6-64.7,8.7-88.8
	c2.6-30.2-10.5-53.6-10.6-53.7l-7.7-10.6c-1.6-2.3-4.7-3.1-7.2-2c0,0-24.1,25-24.2,25.9c-0.4,4.1-3.2,13.3-18.2,28.2
	c-16.3,16.3-16.4,30.6-16.1,34.6c0,0.3,0,0.5,0,0.8c0,1.8,0.2,3.6,0.7,5.3c6.8,21.6,1.5,47.4-7.1,74.4c-0.7,2.5,0.3,5.1,2.5,6.6
	c2.5,1.7-0.5-0.8,0.4,0.3c5.9,7.3,14.5-2.9,24.2-13.9c3.4-3.9,7.3-8.2,11.8-12.8c6.2-6.2,18.2,8,23.7,8
	C775.3,398.6,778.9,399.4,782.2,400.9z"/>
<path class="st6" d="M785.5,264.8c0,0,15.6,13.1,6.7,30.2s-7.7,29.6-7.7,29.6s-2.4,117.1-30,111.4l-12.6,34.8l-22.7-8.2l13.1-30.7
	c0,0-10.5-0.7-7.5-7.8c2.2-5,13.8-59.7,20.5-91.8c2.9-13.6,4.8-23.2,4.8-23.2S759.2,261.2,785.5,264.8z"/>
<polygon class="st7" points="788.8,324.3 780,381.8 784.7,320.3 "/>
<path class="st4" d="M716.4,194.5c0,0-5-39,35.9-26.2c0,0,29.2-5.4,38.8,31.2l9.7,38.3l-4.7-2.6l-2.2,4.8l-7.7,1.9l-3.3-6.5
	l-1.6,7.9l-62.7,6.3c0,0,28.1-16.6,28.5-46.4l-5.4,5.7L716.4,194.5z"/>
<polygon class="st7" points="763,583.2 777,490 765.6,590.6 "/>
<circle class="st4" cx="785.9" cy="168.7" r="15.8"/>
<path class="st4" d="M769.6,164.8c0.5-8.3,7.4-14.8,15.8-14.7c-0.3,0-0.6-0.1-1-0.1c-8.7-0.6-16.2,6-16.8,14.7
	c-0.6,8.7,6,16.2,14.7,16.8c0,0,0,0,0,0c0.3,0,0.7,0,1,0C775.1,180.4,769.1,173.1,769.6,164.8z"/>
<polygon class="st7" points="740.9,342.2 727,416.6 745,334.4 "/>
<path class="st5" d="M741.7,229.2l-8.1,6.1c-8.3-4.2-14.6-13.9-16.8-23.1l8.8-4.4C726.3,217.2,733,223.4,741.7,229.2z"/>
<path class="st5" d="M745.1,209.1h-20.1c-0.4,0-0.7-0.3-0.7-0.7s0.3-0.7,0.7-0.7l0,0h20.1c0.4,0,0.7,0.3,0.7,0.7
	S745.5,209.1,745.1,209.1z"/>
<path class="st5" d="M741.1,229.2c-0.4,0-0.7-0.3-0.7-0.7c0-0.1,0-0.2,0-0.3l5.4-13.4c0.1-0.3,0.5-0.5,0.9-0.4
	c0.3,0.1,0.5,0.5,0.4,0.9l0,0l-5.4,13.4C741.6,229,741.3,229.2,741.1,229.2z"/>
<ellipse class="st3" cx="746.4" cy="210.1" rx="4.9" ry="6.9"/>
<polygon class="st4" points="399.2,230.9 451.7,242.9 473.9,201.1 429,183.5 "/>
<path class="st8" d="M427.1,456c0,0-16.9,38.7-16.9,49.9c0,0,6.7,30.6,4.6,39l-7.4,15.8l-15.5-6.3l-4.2-42.2l0.7-67.5L427.1,456z"/>
<path class="st8" d="M436.6,224.7c0,0,1.4,23.2-1.4,30.2c-2.8,7,10.5,20.4,10.5,20.4l21.1-27.4c0,0-14.1-14.1-10.5-29.5L436.6,224.7
	z"/>
<path class="st2" d="M392.6,385.4c0,0-20.4,38-0.7,35.1s13-36.2,13-36.2"/>
<polyline class="st8" points="404.9,384.3 411.6,317.9 411.3,277.5 395.8,280.3 395.8,317.5 392.6,385.4 "/>
<path class="st4" d="M388.1,549.5l30.2-12l3.5,59.8c0,0,6.3,18.3,4.2,25.3c0,0,1.4,12-2.1,12.7s-13.4,2.1-14.1,1.4s-0.7-2.8-0.7-2.8
	s-7,4.9-7.7,10.5c0,0-29.5,9.1-30.2,0.7s14.8-15.5,14.8-15.5l12-18.3L388.1,549.5z"/>
<path class="st8" d="M490,456c0,0-16.9,38.7-16.9,49.9c0,0,6.7,30.6,4.6,39l-7.4,15.8l-15.5-6.3l-4.2-42.2l0.7-67.5L490,456z"/>
<path class="st4" d="M452,549.5l30.2-12l3.5,59.8c0,0,6.3,18.3,4.2,25.3c0,0,1.4,12-2.1,12.7s-13.4,2.1-14.1,1.4s-0.7-2.8-0.7-2.8
	s-7,4.9-7.7,10.5c0,0-29.5,9.1-30.2,0.7s14.8-15.5,14.8-15.5l12-18.3L452,549.5z"/>
<path class="st8" d="M466.1,208.6c0,12.4-10.1,22.5-22.5,22.5c-10.5,0-19.6-7.3-21.9-17.6c-0.4-1.6-0.6-3.3-0.6-4.9
	c0-12.4,10.1-22.5,22.5-22.5C456,186.1,466.1,196.2,466.1,208.6L466.1,208.6z"/>
<path class="st6" d="M446.4,253.6l17.5-9.1l7.9,6.3c0,0,19-0.7,26,7.7c7,8.4,10.9,29.9,10.9,29.9s-23.2-4.9-20.4,14.8l-4.2-11.2
	l-3.9,9.5l-47.1,16.2L412,281.7c0,0-14.1-4.2-19,5.6c0,0,1.1-35.5,14.8-36.6c9.2-0.7,16.2-0.7,16.2-0.7l7.7-1.4l5-1.8L446.4,253.6z"
	/>
<path class="st6" d="M476.3,330.5l10.4-35.7c-12.5-13.6-1.7-43.6-1.7-43.6l-15-3.2c0,0-15.1,40.7-30.6,35.8s-7-36.6-7-36.6
	l-14.1,1.4l-6.3,24.6l4.6,52.4C435.6,324,455.6,325.9,476.3,330.5z"/>
<polyline class="st8" points="494.6,384.3 499.5,317.5 500.9,277.5 485.4,280.3 485.4,317.5 482.3,385.4 "/>
<path class="st6" d="M508.6,288.4c0,0-2.5-36.1-23.4-36v41.8C485.2,294.1,500.9,284.9,508.6,288.4z"/>
<path class="st5" d="M450.8,214.4c-0.3,0-0.6-0.3-0.6-0.6c0-0.2,0.1-0.3,0.2-0.4l11.5-9.2c0.2-0.2,0.6-0.2,0.8,0.1
	c0.2,0.2,0.2,0.6-0.1,0.8c0,0,0,0,0,0l-11.5,9.2C451,214.3,450.9,214.4,450.8,214.4z"/>
<path class="st5" d="M451.7,228.2c-0.3,0.3-0.5,0.6-0.8,0.9c-11.3,5.1-24.6,0.1-29.8-11.2c-0.6-1.4-1.1-2.9-1.5-4.4l10.9-2l21.1,2
	C446.8,219.4,447.4,221.4,451.7,228.2z"/>
<path class="st4" d="M430.9,177.1c0,0-11.6,2.2-14.3,16.7c-0.4,2.4-0.5,4.9-0.2,7.4c0.3,2.8-0.1,8.7-6.2,15.6
	c-4,4.5-7.6,9.2-11,14.2l0,0l12.1,3.2l5.4-20.1c2.6-9.8,6.7-19.1,12-27.7l0.1-0.2c0,0,4,10.8,14.9,12.3l-3.3-4.4
	c0,0,12.6,7.3,19.8,9.5c2.5,0.8,3.9,3.4,3.1,5.9c-0.3,0.9-0.8,1.7-1.6,2.3c-0.1,0-0.1,0.1-0.2,0.1c-5.3,4-16,13.5-11.8,22.8
	s-0.7,10.9-0.7,10.9l9.1-3.5l4.2-1.8l-0.4,3.1l20.4,0.4c0,0,5.5,0-4.3-14.7c0,0-2.4-5.5-0.4-9.7c1.6-3.2,2.3-6.7,2.3-10.3
	C479.3,194.4,473,164.2,430.9,177.1z"/>
<path class="st4" d="M144.7,599.7c0,0,0,95.5-21.9,120.5c0,0-4.7,12.5-6.3,17.2c-0.9,2.7-1.9,5.3-3.1,7.8v6.3
	c0,0-42.3-4.7-46.9-15.6l7.8-9.4c0,0,1.6-1.6,0-6.3s3.1-4.7,3.1-4.7l11-25l-1.6-103.3l7.8-142.4l67.3-3.1L144.7,599.7z"/>
<path class="st4" d="M110.3,742.1c0,0,11,32.9,0,34.4S3.9,779.7,5.4,767.2s32.9-11,32.9-11l32.9-20.3L110.3,742.1z"/>
<path class="st4" d="M207.3,444.8c0,0,3.1,20.3-9.4,42.3s-4.7,95.5-4.7,95.5l111.1,97c0,0-21.9,37.6-29.7,36
	S143.1,613.8,143.1,613.8L94.6,451L207.3,444.8z"/>
<path class="st4" d="M302.8,675.4c0,0,33.6,8.3,29.1,18.4s-54.3,91.6-64.1,83.5c-9.7-8,8.3-33.6,8.3-33.6l0.4-38.6L302.8,675.4z"/>
<path class="st9" d="M182.3,153.7c0,8.2-2.8,16.2-8,22.6c-8.4,10.4-21.8,15.3-34.9,12.7c-3.2-0.6-6.3-1.7-9.2-3.2
	c-9.4-4.7-16.2-13.3-18.7-23.5c-0.7-2.8-1.1-5.7-1-8.6c0-19.9,16.1-36,36-36S182.3,133.8,182.3,153.7L182.3,153.7z"/>
<path class="st9" d="M174.6,166.4l-1.6,46.3l-30.3,12c0,0-3-47.4-7.2-50.1S174.6,166.4,174.6,166.4z"/>
<path class="st6" d="M135.3,230.4c0,0,42.3-42.3,53.2-40.7s11,6.3,11,9.4s-3.1,4.7,0,6.3s6.3,0,6.3,4.7s28.2,51.6,18.8,103.3
	s-20.3,76.7-15.6,104.9s1.6,34.4,1.6,34.4S93.1,462,91.5,451s4.7-4.7-3.1-12.5s-4.7-7.8-4.7-12.5S118.1,230.4,135.3,230.4z"/>
<path class="st5" d="M157.2,443.2c0,0-18.8,45.4-32.9,34.4s6.3-48.5,6.3-48.5L157.2,443.2z"/>
<path class="st6" d="M202.6,233.5c0,0,36.8,4.2,23.1,71.7S158.8,451,158.8,451l-36-17.2l46.9-92.3l-11-57.9
	C158.8,283.6,152.5,228.8,202.6,233.5z"/>
<polygon class="st7" points="170.5,342.3 118.9,428.4 123.6,433 "/>
<polygon class="st7" points="197.9,382.4 156.4,450.3 170.5,450.3 "/>
<rect x="122.7" y="502.3" transform="matrix(0.9343 -0.3564 0.3564 0.9343 -191.4723 80.9041)" class="st7" width="2.2" height="115.6"/>
<circle class="st10" cx="135.5" cy="236.8" r="2.2"/>
<line class="st11" x1="135.5" y1="236.8" x2="116.6" y2="298"/>
<path class="st10" d="M116.6,299.1c0.5,0,0.9-0.3,1.1-0.8l18.9-61.2c0.2-0.6-0.1-1.2-0.7-1.4c-0.6-0.2-1.2,0.1-1.4,0.7c0,0,0,0,0,0
	l-18.9,61.2c-0.2,0.6,0.1,1.2,0.7,1.4C116.4,299.1,116.5,299.1,116.6,299.1L116.6,299.1z"/>
<path class="st5" d="M139,181.3l-9,8.6c-9.3-4.7-18.2-17.2-20.7-27.5l11.8-4.9C121.9,167.9,129.3,174.8,139,181.3z"/>
<path class="st5" d="M141.3,161.8c0,0-0.1,0-0.1,0l-20.9-3c-0.4-0.1-0.7-0.4-0.6-0.8s0.4-0.7,0.8-0.6l0,0l20.9,3
	c0.4,0.1,0.7,0.4,0.6,0.8C142,161.6,141.7,161.8,141.3,161.8L141.3,161.8z"/>
<path class="st5" d="M138.3,181.3c-0.4,0-0.7-0.3-0.7-0.7c0-0.1,0-0.3,0.1-0.4l6.9-12.3c0.2-0.4,0.7-0.5,1-0.3
	c0.4,0.2,0.5,0.7,0.3,1c0,0,0,0,0,0l-6.9,12.3C138.8,181.1,138.6,181.3,138.3,181.3z"/>
<path class="st4" d="M162.6,175.3c-2.9-1.5-6.3-1.9-9.5-2.8c-11.3-3.4-18.8-16.2-16.4-27.7c0.4-1.5,0.6-3,0.6-4.6
	c-0.4-3.4-3.9-5.6-7.3-6.4s-6.9-0.7-10.1-1.9c-5-1.9-8.2-7-9-12.3s0.9-10.6,3.4-15.3l1.2,3.5c1.8-1.6,3.2-3.6,4-5.9
	c2.8,0.5,5.2,2.4,6.2,5c1.9,1.1,2.2-3.6,4.4-4.3c0.9-0.3,1.8,0.3,2.7,0.7c4.3,2,9.4,0.3,14-0.8c8-1.9,16.4-1.9,24.5,0
	c5.3,1.3,10.6,3.5,14.5,7.4c3.1,3.2,5.1,7.4,6.8,11.6c4.1,10.3,6.8,21.5,5.5,32.5c-1.1,9-4.9,17.5-10.8,24.4
	c-3.1,3.6-13.2,16-18.7,13.9C161.3,189.6,170.8,179.7,162.6,175.3z"/>
<path class="st12" d="M478.1,328.6c0,0,19.9,203,6.3,229.8c0,0-44.5,31.6-122.3-24.2l54.4-220.3
	C437.6,308.6,458.2,313.5,478.1,328.6z"/>
<path class="st5" d="M481.8,385.4c0,0-20.4,38-0.7,35.1s13-36.2,13-36.2"/>
</svg>
